<svg width="67" height="66" viewBox="0 0 67 66" xmlns="http://www.w3.org/2000/svg" xmlns:xlink="http://www.w3.org/1999/xlink"><title>F58F4964-3AAF-4827-9B7B-EA2264F3EB0E</title><defs><circle id="a" cx="27.5" cy="27" r="27"/><filter x="-50%" y="-50%" width="200%" height="200%" filterUnits="objectBoundingBox" id="b"><feOffset dy="2" in="SourceAlpha" result="shadowOffsetOuter1"/><feGaussianBlur stdDeviation="3" in="shadowOffsetOuter1" result="shadowBlurOuter1"/><feComposite in="shadowBlurOuter1" in2="SourceAlpha" operator="out" result="shadowBlurOuter1"/><feColorMatrix values="0 0 0 0 0 0 0 0 0 0 0 0 0 0 0 0 0 0 0.5 0" in="shadowBlurOuter1"/></filter><mask id="c" x="0" y="0" width="54" height="54" fill="#fff"><use xlink:href="#a"/></mask></defs><g fill="none" fill-rule="evenodd"><g transform="translate(6 4)"><use fill="#000" filter="url(#b)" xlink:href="#a"/><use stroke="#E6BA4D" mask="url(#c)" stroke-width="8" fill="#FFF" xlink:href="#a"/></g><path d="M38.352 26.427h3.856l2.57 4.177h-6.426v-4.177zm3.535 14.46a1.606 1.606 0 1 0 0-3.213 1.606 1.606 0 0 0 0 3.213zm-14.782 0a1.606 1.606 0 1 0 0-3.213 1.606 1.606 0 0 0 0 3.213zm18.258-.964h.378a2.247 2.247 0 0 0 2.25-2.248v-2.251s.02-2.347 0-3.492c-1.972-2.622-5.286-8.076-5.286-8.076h-5.638v-1.61A2.25 2.25 0 0 0 34.816 20H23.25A2.247 2.247 0 0 0 21 22.247v15.43a2.25 2.25 0 0 0 2.25 2.246h.38a3.535 3.535 0 0 0 6.952 0h7.828a3.535 3.535 0 0 0 6.953 0z" fill="#E6BA4D"/></g></svg>