<svg width="32" height="28" viewBox="0 0 32 28" xmlns="http://www.w3.org/2000/svg"><title>0BE81505-63F0-490D-B567-ECABBCA5F7EE</title><path d="M20.565 7.617h4.57l3.047 4.95h-7.617v-4.95zm4.19 17.137a1.904 1.904 0 1 0 0-3.807 1.904 1.904 0 0 0 0 3.807zm-17.52 0a1.904 1.904 0 1 0 .001-3.807 1.904 1.904 0 0 0 0 3.807zm21.64-1.142h.448a2.663 2.663 0 0 0 2.667-2.663V18.28s.022-2.781 0-4.138c-2.338-3.108-6.265-9.572-6.265-9.572h-6.683V2.663A2.667 2.667 0 0 0 16.374 0H2.668A2.663 2.663 0 0 0 0 2.663v18.286a2.667 2.667 0 0 0 2.668 2.663h.448a4.19 4.19 0 0 0 8.24 0h9.279a4.19 4.19 0 0 0 8.24 0z" fill="#E6BA4D" fill-rule="evenodd"/></svg>