<svg width="53" height="71" viewBox="0 0 53 71" xmlns="http://www.w3.org/2000/svg" xmlns:xlink="http://www.w3.org/1999/xlink"><title>C2B567E5-461A-4DCF-8535-999B1E370C8B</title><defs><path d="M537.117 698c6.136 0 11.356 2.152 15.66 6.457 4.305 4.305 6.457 9.525 6.457 15.66 0 3.068-.767 6.58-2.3 10.54a64.97 64.97 0 0 1-5.567 11.132 221.24 221.24 0 0 1-6.457 9.723c-2.127 3.018-3.933 5.418-5.418 7.199l-2.375 2.523a534.81 534.81 0 0 0-2.375-2.746c-.99-1.138-2.77-3.414-5.344-6.828-2.572-3.414-4.824-6.729-6.753-9.945-1.93-3.216-3.687-6.853-5.27-10.91-1.583-4.058-2.375-7.62-2.375-10.688 0-6.135 2.152-11.355 6.457-15.66s9.525-6.457 15.66-6.457z" id="b"/><filter x="-50%" y="-50%" width="200%" height="200%" filterUnits="objectBoundingBox" id="a"><feOffset dy="2" in="SourceAlpha" result="shadowOffsetOuter1"/><feGaussianBlur stdDeviation="2" in="shadowOffsetOuter1" result="shadowBlurOuter1"/><feComposite in="shadowBlurOuter1" in2="SourceAlpha" operator="out" result="shadowBlurOuter1"/><feColorMatrix values="0 0 0 0 0 0 0 0 0 0 0 0 0 0 0 0 0 0 0.5 0" in="shadowBlurOuter1"/></filter></defs><g transform="translate(-511 -696)" fill="none" fill-rule="evenodd"><use fill="#000" filter="url(#a)" xlink:href="#b"/><use fill="#478CC8" xlink:href="#b"/></g></svg>