<svg width="42" height="42" viewBox="0 0 42 42" xmlns="http://www.w3.org/2000/svg"><title>6E69413D-5015-4C50-92A5-5A84BC235DD2</title><g fill="none" fill-rule="evenodd"><path d="M17.534 5.252l2.853-2.863 2.855 2.863h-5.708zm5.708 30.538l-2.855 2.863-2.853-2.863h5.708zM4.893 17.616L2.04 20.479l2.854 2.863v-5.726zm30.922 0l2.854 2.863-2.854 2.863v-5.726zm-15.393 2a3.37 3.37 0 0 0 3.364-3.375 3.37 3.37 0 0 0-3.364-3.375 3.37 3.37 0 0 0-3.364 3.375 3.37 3.37 0 0 0 3.364 3.374zm-.034 13.077c6.756 0 12.233-5.494 12.233-12.271 0-6.777-5.477-12.271-12.233-12.271S8.155 13.645 8.155 20.421c0 6.778 5.477 12.272 12.233 12.272zm4.275 7.759l.337-.76c.968-2.179 3.55-3.25 5.768-2.397l.755.29a20.513 20.513 0 0 0 5.947-5.966l-.289-.757c-.85-2.226.219-4.815 2.389-5.786l.757-.338a20.68 20.68 0 0 0 .035-8.406l-.792-.354c-2.172-.97-3.24-3.56-2.39-5.785l.326-.853a20.534 20.534 0 0 0-5.838-5.927l-.901.346c-2.22.854-4.8-.22-5.768-2.396l-.412-.929A20.404 20.404 0 0 0 20.21.001a20.396 20.396 0 0 0-3.852.398l-.428.963c-.967 2.179-3.55 3.25-5.767 2.396l-.998-.383a20.526 20.526 0 0 0-5.8 5.816l.384 1c.851 2.227-.219 4.816-2.388 5.786l-.963.43a20.612 20.612 0 0 0-.396 4.222c.012 1.381.16 2.73.432 4.032l.927.415c2.171.97 3.24 3.56 2.388 5.785l-.345.905a20.515 20.515 0 0 0 5.908 5.856l.851-.327c2.22-.853 4.801.22 5.768 2.397l.354.796c1.382.283 2.814.427 4.282.414a20.431 20.431 0 0 0 4.097-.45zm-.877-10.375a10.213 10.213 0 0 0 6.796-9.628c0-5.64-4.564-10.21-10.194-10.21-5.63 0-10.194 4.57-10.194 10.21 0 4.445 2.836 8.227 6.796 9.628v-8.268h6.796v8.268z" fill="#344A5C"/><circle fill="#E6BA4D" cx="34" cy="34" r="8"/><path fill="#FFF" d="M37.625 30.375l-3.459 8.25h-.451l-1.203-3.137-3.137-1.203v-.451z"/></g></svg>